<svg transform="scale(1)" version="1.1" id="Layer_1" xmlns="http://www.w3.org/2000/svg" xmlns:xlink="http://www.w3.org/1999/xlink" x="0px" y="0px" viewBox="0 0 400 300" xml:space="preserve" class="show_show__wrapper__graphic__5Waiy "><title>React</title><style type="text/css">
	.st0{fill:#FFFFFF;}
	.st1{fill:#231F20;}
	.st2{fill:#D1D3D4;}
	.st3{fill:#419AEC;}
</style><g id="Hands"><path class="st0" d="M84.7,217.7c0,0,13.3-25.7,17.4-30.8s24.6-61.6,24.8-62.2s-35.9,3.3-40.2,6.8s-8.4,35.6-12,39.1
		s-16.8,19.9-16.8,19.9L84.7,217.7z"></path><path class="st1" d="M84.7,218.2c-0.1,0-0.3-0.1-0.4-0.1l-26.8-27.2c-0.2-0.2-0.2-0.5,0-0.7c0.5-0.7,13.4-16.4,16.9-19.9
		c1.6-1.6,3.4-9.7,5.2-17.6c2.3-10.1,4.4-19.6,6.8-21.6s13.2-3.8,21.8-5c2.8-0.4,18.4-2.4,19.1-1.8c0.2,0.2,0.2,0.4,0.1,0.6
		c-0.1,0.1-0.6,1.7-1.4,3.8c-4.9,13.4-20,54.1-23.5,58.5c-4,5.1-17.2,30.5-17.3,30.7C85.1,218.1,85,218.2,84.7,218.2L84.7,218.2z
		 M58.6,190.5l26,26.4c2.1-4,13.4-25.5,17.1-30.3c2.3-2.9,10.1-22.5,23.3-58.2c0.6-1.7,1-2.7,1.2-3.2c-4.8,0.1-35.4,3.6-39.2,6.7
		c-2.2,1.8-4.5,12-6.5,21c-2,8.8-3.7,16.3-5.4,18.1C71.9,174.2,60.5,188.1,58.6,190.5z"></path><polygon class="st1" points="78,240.4 94.5,206.1 61.9,179.3 33.5,215 	"></polygon><path class="st1" d="M78,240.8c-0.1,0-0.2,0-0.2-0.1l-44.5-25.3c-0.1-0.1-0.2-0.2-0.2-0.3c0-0.1,0-0.3,0.1-0.4L61.5,179
		c0.1-0.1,0.2-0.2,0.3-0.2c0.1,0,0.3,0,0.4,0.1l32.6,26.8c0.2,0.1,0.2,0.4,0.1,0.6l-16.5,34.3c-0.1,0.1-0.2,0.2-0.3,0.3
		C78.1,240.8,78,240.8,78,240.8z M34.3,214.8l43.5,24.8l16.1-33.4L62,180L34.3,214.8z"></path><path class="st0" d="M85.8,212.1c-0.1,0-0.2,0-0.3-0.1l-28-21.1c-0.2-0.2-0.3-0.5-0.1-0.7s0.5-0.3,0.7-0.1l0,0l28,21.1
		c0.2,0.2,0.3,0.5,0.1,0.7C86.2,212.1,86,212.1,85.8,212.1z"></path><path class="st0" d="M314.2,217.7c0,0-13.3-25.6-17.4-30.8s-24.6-61.6-24.9-62.2s35.9,3.3,40.2,6.8s8.4,35.6,12,39.1
		s16.9,19.9,16.9,19.9L314.2,217.7z"></path><path class="st1" d="M314.2,218.2L314.2,218.2c-0.2,0-0.4-0.1-0.4-0.3c-0.1-0.3-13.4-25.7-17.4-30.7c-3.5-4.4-18.5-45.1-23.5-58.5
		c-0.8-2.1-1.3-3.6-1.4-3.8c-0.1-0.2,0-0.5,0.1-0.6c0.7-0.6,16.3,1.4,19.1,1.8c8.6,1.2,19.4,3,21.8,5s4.6,11.5,6.9,21.6
		c1.8,7.9,3.6,16,5.1,17.6c3.5,3.5,16.4,19.2,16.9,19.9c0.2,0.2,0.2,0.5,0,0.7L314.6,218C314.5,218.1,314.4,218.2,314.2,218.2z
		 M272.7,125.2c0.2,0.5,0.5,1.5,1.2,3.2c13.2,35.8,21.1,55.4,23.3,58.2c3.8,4.8,15,26.3,17.1,30.3l26-26.4
		c-2-2.4-13.3-16.3-16.5-19.5c-1.8-1.8-3.5-9.3-5.4-18.1c-2-9-4.3-19.3-6.5-21C308.1,128.8,277.5,125.3,272.7,125.2L272.7,125.2z"></path><polygon class="st1" points="316.5,240.7 304.5,206.1 338.3,184 362.9,221.8 	"></polygon><path class="st1" d="M316.5,241.2c-0.1,0-0.1,0-0.2,0c-0.1-0.1-0.2-0.2-0.3-0.3L304,206.2c-0.1-0.2,0-0.5,0.2-0.6l33.9-22
		c0.2-0.1,0.5-0.1,0.7,0.1c0,0,0,0,0,0l24.6,37.7c0.1,0.1,0.1,0.3,0.1,0.4c0,0.1-0.2,0.3-0.3,0.3l-46.4,19
		C316.7,241.3,316.6,241.3,316.5,241.2z M305.1,206.3l11.8,33.8l45.3-18.5l-24-36.8L305.1,206.3z"></path><path class="st0" d="M313.4,213.2c-0.2,0-0.3-0.1-0.4-0.2c-0.1-0.2-0.1-0.5,0.1-0.7l26.9-17.1c0.2-0.2,0.5-0.1,0.7,0.1
		s0.1,0.5-0.1,0.7c0,0-0.1,0-0.1,0.1l-26.8,17.1C313.5,213.2,313.4,213.3,313.4,213.2z"></path></g><g id="map"><path class="st0" d="M130.2,92.2c0,0-35.7,94.4-33.7,95.6s46.2-11.8,55.5-14.2l48.9,15.9l52.8-11.2l48.2,14.8l-25.8-97.4l-37-18.9
		l-36.3,17.7l-34.3-15.3L130.2,92.2z"></path><path class="st1" d="M301.9,193.7c0,0-0.1,0-0.1,0L253.7,179L201,190.1c-0.1,0-0.2,0-0.3,0L152,174.2c-2.5,0.6-7.4,2-13,3.6
		c-27.2,7.6-41.3,11.3-42.7,10.5c-0.7-0.4-1.6-0.9,15.9-48.8c8.6-23.5,17.5-47.1,17.6-47.4c0.1-0.1,0.2-0.3,0.3-0.3l38.3-13
		c0.1,0,0.2,0,0.4,0L202.9,94L239,76.4c0.1-0.1,0.3-0.1,0.4,0l37,18.9c0.1,0.1,0.2,0.2,0.2,0.3l25.7,97.3c0,0.2,0,0.4-0.1,0.5
		C302.2,193.6,302,193.7,301.9,193.7z M253.7,177.9h0.1l47.4,14.5l-25.5-96.3l-36.6-18.7l-36.1,17.6c-0.1,0.1-0.3,0.1-0.4,0
		l-34.2-15.2l-37.9,12.8C117,128.8,97.1,183,96.9,187.4c2.8,0.2,28.1-6.8,41.7-10.6c5.8-1.6,10.8-3,13.2-3.6c0.1,0,0.2,0,0.3,0
		l48.7,15.9l52.7-11.2L253.7,177.9z M97,187.6L97,187.6z"></path><path class="st2" d="M127.7,125.8c-0.2,0-0.4-0.1-0.5-0.3c-0.2-0.5-0.1-1,0.1-1.5c0.7-1,1.7-1.7,2.8-1.9c8.1-2.3,16.5-2.9,24.9-1.7
		c1,0.2,2.1,0.3,3.1,0.5c3.4,0.6,6.9,1.2,10.3,0.8c3.5-0.6,6.9-1.9,9.9-3.9c8.2-5.1,13.1-12.4,13-19.4c0-0.3,0.2-0.5,0.5-0.5
		c0,0,0,0,0,0c0.3,0,0.5,0.2,0.5,0.4c0,0,0,0,0,0c0.1,7.4-4.9,15-13.4,20.3c-3.1,2.1-6.6,3.5-10.2,4.1c-3.6,0.5-7.2-0.2-10.6-0.8
		c-1-0.2-2.1-0.4-3.1-0.5c-8.2-1.2-16.5-0.6-24.4,1.7c-0.9,0.2-1.7,0.7-2.2,1.4c-0.1,0.2-0.1,0.5-0.1,0.7c0.1,0.3-0.1,0.5-0.3,0.6
		C127.8,125.8,127.7,125.8,127.7,125.8z"></path><path class="st2" d="M123.9,169.9c-0.1,0-0.1,0-0.2,0c-0.3-0.1-0.4-0.4-0.3-0.6c0,0,0,0,0,0c4.3-12.1,9.1-23.4,19.1-29.2
		c6.9-4,15.9-4.9,26.7-2.9c4.1,0.8,8.2,1.9,12.2,3c4.7,1.4,9.4,2.5,14.2,3.3c6.7,1.1,11.6,0.5,15.3-1.7s6.1-6.1,8.5-10.1
		c1.5-2.7,3.2-5.2,5.2-7.5c6.4-7,16.3-9.1,26.7-10.8c8.9-1.4,17.4-2.3,24.3,2.1c0.2,0.1,0.3,0.4,0.2,0.7c-0.1,0.2-0.4,0.3-0.7,0.2
		c0,0,0,0,0,0c-6.6-4.2-14.9-3.3-23.6-1.9c-10.2,1.6-20,3.7-26.2,10.5c-1.9,2.3-3.6,4.7-5.1,7.3c-2.4,4-4.8,8.1-8.9,10.5
		s-9,2.9-16,1.8c-4.8-0.9-9.6-2-14.3-3.3c-4-1.1-8-2.2-12.1-3c-10.6-2-19.4-1.1-26.1,2.8c-9.8,5.6-14.4,16.8-18.7,28.7
		C124.3,169.7,124.1,169.9,123.9,169.9z"></path><path class="st2" d="M200.9,190.1L200.9,190.1c-0.3,0-0.5-0.2-0.5-0.5c0,0,0,0,0,0l2-95c0-0.3,0.2-0.5,0.5-0.5
		c0.3,0,0.5,0.2,0.5,0.5c0,0,0,0,0,0l-2,95C201.4,189.9,201.1,190.1,200.9,190.1C200.9,190.1,200.9,190.1,200.9,190.1z"></path><path class="st2" d="M152,174.2L152,174.2c-0.4,0-0.5-0.3-0.5-0.6c0,0,0,0,0,0L168,79.2c0-0.3,0.3-0.4,0.5-0.4c0,0,0,0,0,0
		c0.3,0,0.5,0.3,0.4,0.6c0,0,0,0,0,0l-16.5,94.4C152.4,174,152.2,174.2,152,174.2z"></path><path class="st2" d="M253.7,178.9c-0.2,0-0.5-0.2-0.5-0.4L238.7,77c0-0.3,0.2-0.5,0.4-0.6c0.3,0,0.5,0.2,0.6,0.4l14.5,101.5
		C254.2,178.6,254.1,178.9,253.7,178.9L253.7,178.9z"></path><path class="st2" d="M288.9,183.6c-0.1,0-0.1,0-0.2,0L251.9,168l-52.2,12.2c-0.1,0-0.2,0-0.3,0l-45.5-17.6L110,173.8
		c-0.2,0-0.4,0-0.5-0.1c-0.1-0.1-0.2-0.3-0.1-0.5l27.2-76.3c0-0.1,0.2-0.2,0.3-0.3l30.3-11.8c0.1-0.1,0.3-0.1,0.4,0l35.2,17.2
		l36.8-18c0.1-0.1,0.3-0.1,0.4,0l31.9,16.5c0.1,0.1,0.2,0.2,0.3,0.3l17.3,82.2c0,0.2,0,0.4-0.2,0.5
		C289.2,183.6,289,183.6,288.9,183.6z M251.9,166.9c0.1,0,0.1,0,0.2,0l36.1,15.4l-17.1-81.1l-31.4-16.3l-36.8,18
		c-0.1,0.1-0.3,0.1-0.4,0l-35.2-17.2l-29.9,11.6l-26.8,75.2l43.2-11.2c0.1,0,0.2,0,0.3,0l45.5,17.6l52.2-12.2L251.9,166.9z"></path></g><path class="st3" id="marker_2" d="M239.6,131.2l-3.8-7.7c-4-8.2-8-16.3-12.1-24.4c-1.6-2.9-2.4-6.1-2.4-9.4
	c0.2-10.1,8.5-18.2,18.6-18.1c8.3,0.1,15.5,5.8,17.5,13.8c1.1,4.3,0.6,8.8-1.4,12.7l-10.1,20.4l-5.9,12
	C239.8,130.8,239.7,130.9,239.6,131.2z M239.6,99.1c5.1,0,9.2-4.1,9.2-9.1c0-5.1-4.1-9.2-9.1-9.2s-9.2,4.1-9.2,9.1c0,0,0,0,0,0
	C230.4,95,234.5,99.1,239.6,99.1L239.6,99.1z"></path><path class="st3" id="marker_1" d="M163.2,150.9l-3.8-7.7c-4-8.1-8-16.3-12.1-24.4c-1.6-2.9-2.4-6.1-2.4-9.4
	c0.2-10.1,8.6-18.2,18.7-18c8.2,0.2,15.3,5.8,17.4,13.7c1.1,4.3,0.6,8.8-1.4,12.7l-10.1,20.4l-5.9,12
	C163.5,150.4,163.4,150.6,163.2,150.9z M163.2,118.8c5.1,0,9.2-4.1,9.2-9.1c0-5.1-4.1-9.2-9.1-9.2s-9.2,4.1-9.2,9.1c0,0,0,0,0,0
	C154.1,114.6,158.2,118.7,163.2,118.8L163.2,118.8z"></path><g id="Thumbs"><path class="st0" d="M309.8,146.4c-8.3-5.7-17.6-9.8-27.1-13.2c-2.4-0.8-4.9-1.6-7.3-1.1s-4.7,2.8-4.2,5.3c0.4,1.9,2.2,3.2,3.9,4.2
		l21.7,13.6c-2.4,9.3,0.9,19.1,8.5,25"></path><path class="st1" d="M305.3,180.8c-0.1,0-0.2,0-0.3-0.1c-7.7-5.9-11.1-15.8-8.8-25.2l-21.4-13.4c-1.8-1.1-3.7-2.4-4.1-4.5
		c-0.6-2.8,2-5.3,4.6-5.9s5,0.2,7.6,1.1c11.1,3.9,19.7,8.2,27.2,13.2c0.2,0.2,0.3,0.5,0.1,0.7c-0.2,0.2-0.5,0.3-0.7,0.1
		c-7.4-5.1-15.9-9.2-27-13.1c-2.4-0.9-4.8-1.6-7-1.1s-4.2,2.5-3.8,4.7c0.3,1.7,2,2.8,3.6,3.9l21.7,13.6c0.2,0.1,0.3,0.3,0.2,0.6
		c-2.4,9.1,0.9,18.7,8.3,24.5c0.2,0.2,0.3,0.5,0.1,0.7C305.6,180.7,305.5,180.7,305.3,180.8L305.3,180.8z"></path><path class="st0" d="M89.2,146.4c8.3-5.7,17.6-9.8,27.1-13.2c2.3-0.8,4.9-1.6,7.3-1.1s4.7,2.8,4.2,5.3c-0.4,1.9-2.2,3.2-3.8,4.2
		l-21.7,13.6c2.4,9.3-0.9,19.1-8.5,25"></path><path class="st1" d="M93.7,180.8c-0.3,0-0.5-0.2-0.5-0.5c0-0.2,0.1-0.3,0.2-0.4c7.4-5.8,10.7-15.4,8.3-24.5c-0.1-0.2,0-0.4,0.2-0.6
		l21.7-13.6c1.7-1,3.3-2.2,3.6-3.9c0.4-2.2-1.7-4.2-3.8-4.7s-4.6,0.2-7,1.1c-11,3.9-19.6,8.1-27,13.1c-0.2,0.2-0.5,0.1-0.7-0.1
		c-0.2-0.2-0.1-0.5,0.1-0.7c7.4-5.1,16.1-9.3,27.2-13.2c2.5-0.9,5-1.7,7.6-1.1s5.1,3.1,4.6,5.9c-0.4,2.1-2.2,3.4-4.1,4.5l-21.4,13.4
		c2.4,9.4-1.1,19.3-8.7,25.2C93.9,180.8,93.8,180.8,93.7,180.8z"></path></g><g id="lines"><path class="st2" d="M99.6,102.5c-0.1,0-0.2,0-0.3-0.1L81.6,88.8c-0.2-0.2-0.3-0.5-0.1-0.7s0.5-0.3,0.7-0.1l17.7,13.5
		c0.2,0.2,0.3,0.5,0.1,0.7C99.9,102.4,99.8,102.5,99.6,102.5z"></path><path class="st2" d="M193.5,69.9c-0.3,0-0.5-0.2-0.5-0.4l-1.3-10.1c0-0.3,0.2-0.5,0.4-0.6c0.3,0,0.5,0.2,0.6,0.4c0,0,0,0,0,0
		l1.3,10.1C194,69.6,193.8,69.9,193.5,69.9L193.5,69.9z"></path><path class="st2" d="M309.2,111.2c-0.2,0-0.3-0.1-0.4-0.2c-0.2-0.2-0.1-0.5,0.1-0.7c0,0,0,0,0,0l18.6-14.6c0.2-0.2,0.5-0.1,0.7,0.1
		c0.2,0.2,0.1,0.5-0.1,0.7l-18.6,14.6C309.4,111.2,309.3,111.3,309.2,111.2z"></path><path class="st2" d="M270.1,76.1c-0.1,0-0.2,0-0.2-0.1c-0.2-0.1-0.3-0.4-0.2-0.7l4.5-7.9c0.1-0.2,0.4-0.3,0.7-0.2
		c0.2,0.1,0.3,0.4,0.2,0.7l-4.5,7.9C270.5,76,270.3,76.1,270.1,76.1z"></path><path class="st2" d="M113.4,227.9c-0.1,0-0.2,0-0.3-0.1c-0.2-0.2-0.3-0.5-0.1-0.7c0,0,0,0,0,0l16.3-21.4c0.2-0.2,0.5-0.2,0.7,0
		c0.2,0.2,0.2,0.4,0.1,0.7l-16.3,21.4C113.7,227.8,113.6,227.9,113.4,227.9z"></path><path class="st2" d="M273.4,223.4c-0.1,0-0.3-0.1-0.4-0.2l-18-21.4c-0.2-0.2-0.1-0.5,0.1-0.7c0.2-0.1,0.5-0.1,0.6,0.1l18,21.4
		c0.2,0.2,0.1,0.5-0.1,0.7C273.6,223.3,273.5,223.4,273.4,223.4L273.4,223.4z"></path><path class="st2" d="M188.9,221.1L188.9,221.1c-0.3,0-0.5-0.3-0.5-0.6c0,0,0,0,0,0l1.7-12.4c0-0.3,0.3-0.5,0.6-0.4
		c0.3,0,0.5,0.3,0.4,0.6l-1.7,12.4C189.4,221,189.1,221.1,188.9,221.1z"></path></g></svg>